<svg xmlns="http://www.w3.org/2000/svg" viewBox="0 0 1280 720" width="1280" height="720">
  <defs>
    <linearGradient id="bg" x1="0%" y1="0%" x2="100%" y2="100%">
      <stop offset="0%" stop-color="#080a10"/>
      <stop offset="50%" stop-color="#0d1322"/>
      <stop offset="100%" stop-color="#05070c"/>
    </linearGradient>
    <radialGradient id="glow" cx="50%" cy="45%" r="50%">
      <stop offset="0%" stop-color="#ff6b00" stop-opacity="0.22"/>
      <stop offset="60%" stop-color="#38bdf8" stop-opacity="0.06"/>
      <stop offset="100%" stop-color="transparent" stop-opacity="0"/>
    </radialGradient>
    <pattern id="grid" width="40" height="40" patternUnits="userSpaceOnUse">
      <path d="M 40 0 L 0 0 0 40" fill="none" stroke="#ffffff" stroke-opacity="0.04" stroke-width="1"/>
    </pattern>
  </defs>
  
  <rect width="1280" height="720" fill="url(#bg)"/>
  <rect width="1280" height="720" fill="url(#grid)"/>
  <circle cx="640" cy="340" r="380" fill="url(#glow)"/>
  
  <!-- Browser Chrome HUD -->
  <rect x="40" y="30" width="1200" height="52" rx="16" fill="#0d1424" stroke="#1e293b" stroke-width="1.5" fill-opacity="0.85"/>
  <circle cx="72" cy="56" r="6" fill="#f43f5e"/>
  <circle cx="94" cy="56" r="6" fill="#fbbf24"/>
  <circle cx="116" cy="56" r="6" fill="#10b981"/>
  <rect x="150" y="42" width="280" height="28" rx="8" fill="#070c18" stroke="#334155" stroke-width="1"/>
  <text x="170" y="60" fill="#94a3b8" font-family="monospace" font-size="12">https://nexus-robotics.awa/3d-canvas</text>
  
  <text x="960" y="61" fill="#38bdf8" font-family="sans-serif" font-size="11" font-weight="bold" letter-spacing="1">WEBGL 2.0 • 60 FPS • THREE.JS</text>
  
  <!-- 3D Viewport Controls HUD -->
  <rect x="60" y="110" width="220" height="380" rx="16" fill="#090d16" stroke="#1e293b" stroke-width="1" fill-opacity="0.8"/>
  <text x="80" y="145" fill="#f8fafc" font-family="sans-serif" font-size="14" font-weight="bold">ASSEMBLY TELEMETRY</text>
  <text x="80" y="170" fill="#64748b" font-family="sans-serif" font-size="11">Part ID: RHO-904 Titan Arm</text>
  
  <rect x="80" y="200" width="180" height="32" rx="8" fill="#1e293b" stroke="#ff6b00" stroke-width="1"/>
  <text x="95" y="221" fill="#ff8c38" font-family="sans-serif" font-size="11" font-weight="bold">EXPLODED VIEW: ACTIVE</text>
  
  <rect x="80" y="245" width="180" height="32" rx="8" fill="#0d1424" stroke="#334155" stroke-width="1"/>
  <text x="95" y="266" fill="#cbd5e1" font-family="sans-serif" font-size="11">X-Ray Shading: OFF</text>
  
  <rect x="80" y="290" width="180" height="32" rx="8" fill="#0d1424" stroke="#334155" stroke-width="1"/>
  <text x="95" y="311" fill="#cbd5e1" font-family="sans-serif" font-size="11">Torque Simulation: 420 Nm</text>
  
  <!-- Center 3D Robotic Arm Wireframe Schematic -->
  <g transform="translate(640, 360)">
    <!-- Orbital Rings -->
    <ellipse cx="0" cy="0" rx="240" ry="120" fill="none" stroke="#38bdf8" stroke-width="1" stroke-dasharray="6 8" opacity="0.4"/>
    <ellipse cx="0" cy="0" rx="180" ry="220" fill="none" stroke="#ff6b00" stroke-width="1.5" stroke-dasharray="12 12" opacity="0.35"/>
    
    <!-- Central Robotic Core Structure -->
    <polygon points="0,-140 90,-70 90,70 0,140 -90,70 -90,-70" fill="none" stroke="#38bdf8" stroke-width="2.5" opacity="0.8"/>
    <polygon points="0,-100 65,-50 65,50 0,100 -65,50 -65,-50" fill="#0f172a" fill-opacity="0.7" stroke="#ff6b00" stroke-width="2"/>
    
    <line x1="0" y1="-140" x2="0" y2="140" stroke="#38bdf8" stroke-width="1" stroke-opacity="0.5"/>
    <line x1="-90" y1="0" x2="90" y2="0" stroke="#38bdf8" stroke-width="1" stroke-opacity="0.5"/>
    <circle cx="0" cy="0" r="35" fill="#ff6b00" fill-opacity="0.8"/>
    <circle cx="0" cy="0" r="16" fill="#ffffff"/>
    
    <!-- Exploded Callout Lines -->
    <line x1="90" y1="-70" x2="170" y2="-120" stroke="#ff6b00" stroke-width="1.5" stroke-dasharray="4 4"/>
    <circle cx="170" cy="-120" r="4" fill="#ff6b00"/>
    <text x="180" y="-115" fill="#ff8c38" font-family="monospace" font-size="12" font-weight="bold">SERVO GEARBOX v4</text>
    
    <line x1="-90" y1="70" x2="-180" y2="110" stroke="#38bdf8" stroke-width="1.5" stroke-dasharray="4 4"/>
    <circle cx="-180" cy="110" r="4" fill="#38bdf8"/>
    <text x="-310" y="115" fill="#38bdf8" font-family="monospace" font-size="12" font-weight="bold">OPTICAL ENCODER 4K</text>
  </g>
  
  <!-- Bottom HUD Orbit Bar -->
  <rect x="440" y="630" width="400" height="48" rx="24" fill="#0d1424" stroke="#38bdf8" stroke-width="1.5" fill-opacity="0.9"/>
  <text x="475" y="660" fill="#f8fafc" font-family="sans-serif" font-size="13" font-weight="bold">DRAG TO ORBIT 360° • SCROLL TO ZOOM</text>
</svg>